Coordinates
version=1
nRows=4
nColumns=63
inDegrees=yes

Units are S.I. units (second, meters, Newtons, ...)
If the header above contains a line with 'inDegrees', this indicates whether rotational values are in degrees (yes) or radians (no).

endheader
time	pelvis_tilt	pelvis_list	pelvis_rotation	pelvis_tx	pelvis_ty	pelvis_tz	hip_flexion_r	hip_adduction_r	hip_rotation_r	knee_angle_r	knee_angle_r_beta	ankle_angle_r	subtalar_angle_r	mtp_angle_r	hip_flexion_l	hip_adduction_l	hip_rotation_l	knee_angle_l	knee_angle_l_beta	ankle_angle_l	subtalar_angle_l	mtp_angle_l	L5_S1_Flex_Ext	L5_S1_Lat_Bending	L5_S1_axial_rotation	L4_L5_Flex_Ext	L4_L5_Lat_Bending	L4_L5_axial_rotation	L3_L4_Flex_Ext	L3_L4_Lat_Bending	L3_L4_axial_rotation	L2_L3_Flex_Ext	L2_L3_Lat_Bending	L2_L3_axial_rotation	L1_L2_Flex_Ext	L1_L2_Lat_Bending	L1_L2_axial_rotation	L1_T12_Flex_Ext	L1_T12_Lat_Bending	L1_T12_axial_rotation	Abs_r3	Abs_r2	Abs_r1	Abs_t1	Abs_t2	neck_flexion	neck_bending	neck_rotation	arm_flex_r	arm_add_r	arm_rot_r	elbow_flex_r	pro_sup_r	wrist_flex_r	wrist_dev_r	arm_flex_l	arm_add_l	arm_rot_l	elbow_flex_l	pro_sup_l	wrist_flex_l	wrist_dev_l
      0.03333333	      4.50856626	     -0.96034117	    171.06630849	      2.46011972	      0.89123773	      0.57147962	     15.62471634	     -1.05949476	     -5.02373344	     26.12207683	      0.45591625	     18.87304202	     -3.35063459	      0.00000000	      7.54662982	      0.53602913	     -6.52955231	     13.30339106	      0.23218798	     15.36680664	    -18.42361668	      0.00000000	      0.00062906	     -0.16829128	      0.24365974	      0.00116823	     -0.22382740	      0.25888847	      0.00103349	     -0.40918342	      0.25888847	      0.00071896	     -0.40918342	      0.21320227	      0.00058415	     -0.34317958	      0.19797354	      0.00035945	     -0.26068319	      0.18274481	      0.00449334	     -1.90374460	      1.35516238	      0.00000000	      0.00000000	      0.00000000	      0.00000000	      0.00000001	     -5.65811688	     -3.06139133	     -6.37341021	     23.56419357	     54.61781508	      0.00000000	      4.44234904	    -12.09065060	     -6.45123141	      7.89215102	     23.00810189	     57.18652703	      0.00000000	      4.44234904
      0.06666667	      4.46942519	     -0.76812651	    171.69273481	      2.45752143	      0.89320855	      0.56756021	     13.85253499	      0.08211165	     -3.99876120	     23.25717230	      0.40591423	     20.06397318	     -4.75141686	      0.00000000	      7.25465485	      0.36967404	     -7.38319992	     12.71555522	      0.22192830	     14.92063751	    -18.22342130	      0.00000000	      0.00103032	     -0.16531533	      0.09001682	      0.00191341	     -0.21986939	      0.09564287	      0.00169272	     -0.40194770	      0.09564287	      0.00117755	     -0.40194770	      0.07876472	      0.00095676	     -0.33711103	      0.07313866	      0.00058873	     -0.25607345	      0.06751261	      0.00735948	     -1.87008012	      0.50064653	      0.00000000	      0.00000000	      0.00000000	      0.00000000	      0.00000001	     -4.61489201	     -5.31194618	      5.45294086	     21.85739732	     56.52156451	      0.00000000	      4.56799586	    -12.51327020	     -6.70748759	      7.99719966	     23.30045987	     56.50968186	      0.00000000	      4.56799586
      0.10000000	      4.39595145	     -0.84338535	    172.13335488	      2.45521818	      0.89475168	      0.56418605	     12.35094924	      0.62763449	     -3.65486294	     20.86885852	      0.36423029	     21.28578044	     -4.66116056	      0.00000000	      7.09842857	      0.45555311	     -8.36501570	     12.41610336	      0.21670188	     14.57292726	    -18.12222208	      0.00000000	      0.00076983	     -0.18576476	     -0.00505725	      0.00142966	     -0.24706713	     -0.00537333	      0.00126476	     -0.45166844	     -0.00537333	      0.00087984	     -0.45166844	     -0.00442509	      0.00071487	     -0.37881150	     -0.00410902	      0.00043988	     -0.28774961	     -0.00379294	      0.00549885	     -2.10140812	     -0.02812691	      0.00000000	      0.00000000	      0.00000000	      0.00000000	      0.00000001	     -4.50110233	     -5.47573449	      6.17033593	     21.65520368	     56.66184450	      0.00000000	      4.57518226	    -12.80980773	     -6.98774633	      7.94680763	     23.48851524	     56.46796993	      0.00000000	      4.57518226
      0.13333333	      4.28071966	     -0.65724924	    172.38333242	      2.45309955	      0.89602607	      0.56199463	     10.98689437	      1.34136220	     -2.81193974	     18.78916015	      0.32793271	     21.58136054	     -5.61878988	      0.00000000	      6.77560592	      0.28418544	     -9.30461743	     12.00427045	      0.20951404	     14.45545632	    -17.86430740	      0.00000000	      0.00132910	     -0.17194023	     -0.06975517	      0.00246827	     -0.22868051	     -0.07411487	      0.00218358	     -0.41805548	     -0.07411487	      0.00151903	     -0.41805548	     -0.06103578	      0.00123420	     -0.35062052	     -0.05667608	      0.00075945	     -0.26633542	     -0.05231638	      0.00949362	     -1.94502228	     -0.38795736	      0.00000000	      0.00000000	      0.00000000	      0.00000000	      0.00000001	     -3.64318802	     -7.44036008	     17.85049007	     21.03416429	     58.98688076	      0.00000000	      4.67779550	    -13.06159728	     -6.91785304	      7.35306112	     23.55173793	     55.99339079	      0.00000000	      4.67779550
